<?xml version="1.0" encoding="UTF-8"?><svg xmlns="http://www.w3.org/2000/svg" xmlns:xlink="http://www.w3.org/1999/xlink" fill-opacity="1" color-rendering="auto" color-interpolation="auto" text-rendering="auto" stroke="black" stroke-linecap="square" width="943" stroke-miterlimit="10" shape-rendering="auto" stroke-opacity="1" fill="black" stroke-dasharray="none" font-weight="normal" stroke-width="1" height="274" font-family="'Dialog'" font-style="normal" stroke-linejoin="miter" font-size="12px" stroke-dashoffset="0" image-rendering="auto">
  <!--Generated by ySVG 2.6-->
  <defs id="genericDefs"/>
  <g>
    <defs id="defs1">
      <clipPath clipPathUnits="userSpaceOnUse" id="clipPath1">
        <path d="M0 0 L943 0 L943 274 L0 274 L0 0 Z"/>
      </clipPath>
      <clipPath clipPathUnits="userSpaceOnUse" id="clipPath2">
        <path d="M146 31 L1089 31 L1089 305 L146 305 L146 31 Z"/>
      </clipPath>
    </defs>
    <g fill="white" text-rendering="geometricPrecision" shape-rendering="geometricPrecision" transform="translate(-146,-31)" stroke="white">
      <rect x="146" width="943" height="274" y="31" clip-path="url(#clipPath2)" stroke="none"/>
    </g>
    <g fill="rgb(51,102,255)" text-rendering="geometricPrecision" shape-rendering="geometricPrecision" transform="matrix(1,0,0,1,-146,-31)" stroke="rgb(51,102,255)">
      <rect x="593.3531" y="46" clip-path="url(#clipPath2)" width="480" rx="4" ry="4" height="42" stroke="none"/>
    </g>
    <g text-rendering="geometricPrecision" stroke-miterlimit="1.45" shape-rendering="geometricPrecision" transform="matrix(1,0,0,1,-146,-31)" stroke-linecap="butt">
      <rect x="593.3531" y="46" clip-path="url(#clipPath2)" fill="none" width="480" rx="4" ry="4" height="42"/>
      <text x="798.9849" y="71.1543" clip-path="url(#clipPath2)" fill="white" font-family="sans-serif" stroke="none" xml:space="preserve">Kubernetes</text>
    </g>
    <g fill="rgb(51,102,255)" text-rendering="geometricPrecision" shape-rendering="geometricPrecision" transform="matrix(1,0,0,1,-146,-31)" stroke="rgb(51,102,255)">
      <rect x="605.72" y="118" clip-path="url(#clipPath2)" width="153" rx="4" ry="4" height="42" stroke="none"/>
    </g>
    <g text-rendering="geometricPrecision" stroke-miterlimit="1.45" shape-rendering="geometricPrecision" transform="matrix(1,0,0,1,-146,-31)" stroke-linecap="butt">
      <rect x="605.72" y="118" clip-path="url(#clipPath2)" fill="none" width="153" rx="4" ry="4" height="42"/>
      <text x="625.3694" y="143.1543" clip-path="url(#clipPath2)" fill="white" font-family="sans-serif" stroke="none" xml:space="preserve">k8s-itlabs-operator</text>
    </g>
    <g fill="rgb(234,101,34)" text-rendering="geometricPrecision" shape-rendering="geometricPrecision" transform="matrix(1,0,0,1,-146,-31)" stroke="rgb(234,101,34)">
      <rect x="846.9862" y="104" clip-path="url(#clipPath2)" width="214" rx="4" ry="4" height="42" stroke="none"/>
    </g>
    <g text-rendering="geometricPrecision" stroke-miterlimit="1.45" shape-rendering="geometricPrecision" transform="matrix(1,0,0,1,-146,-31)" stroke-linecap="butt">
      <rect x="846.9862" y="104" clip-path="url(#clipPath2)" fill="none" width="214" rx="4" ry="4" height="42"/>
      <text x="917.9188" y="129.1543" clip-path="url(#clipPath2)" fill="white" font-family="sans-serif" stroke="none" xml:space="preserve">Prometheus</text>
    </g>
    <g fill="rgb(234,101,34)" text-rendering="geometricPrecision" shape-rendering="geometricPrecision" transform="matrix(1,0,0,1,-146,-31)" stroke="rgb(234,101,34)">
      <rect x="853.9862" y="158" clip-path="url(#clipPath2)" width="200" rx="4" ry="4" height="42" stroke="none"/>
    </g>
    <g text-rendering="geometricPrecision" stroke-miterlimit="1.45" shape-rendering="geometricPrecision" transform="matrix(1,0,0,1,-146,-31)" stroke-linecap="butt">
      <rect x="853.9862" y="158" clip-path="url(#clipPath2)" fill="none" width="200" rx="4" ry="4" height="42"/>
      <text x="937.8817" y="183.1543" clip-path="url(#clipPath2)" fill="white" font-family="sans-serif" stroke="none" xml:space="preserve">CRDs</text>
    </g>
    <g fill="rgb(234,101,34)" text-rendering="geometricPrecision" shape-rendering="geometricPrecision" transform="matrix(1,0,0,1,-146,-31)" stroke="rgb(234,101,34)">
      <rect x="877.4862" y="212" clip-path="url(#clipPath2)" width="153" rx="4" ry="4" height="42" stroke="none"/>
    </g>
    <g text-rendering="geometricPrecision" stroke-miterlimit="1.45" shape-rendering="geometricPrecision" transform="matrix(1,0,0,1,-146,-31)" stroke-linecap="butt">
      <rect x="877.4862" y="212" clip-path="url(#clipPath2)" fill="none" width="153" rx="4" ry="4" height="42"/>
      <text x="909.0038" y="237.1543" clip-path="url(#clipPath2)" fill="white" font-family="sans-serif" stroke="none" xml:space="preserve">ServiceMonitor</text>
      <rect x="161.44" y="95.125" clip-path="url(#clipPath2)" fill="none" width="365" rx="4" ry="4" height="181.75" stroke="silver"/>
      <text x="171.9527" xml:space="preserve" y="127.2949" clip-path="url(#clipPath2)" font-family="sans-serif" stroke="none">apiVersion: v1</text>
      <text x="171.9527" xml:space="preserve" y="141.2637" clip-path="url(#clipPath2)" font-family="sans-serif" stroke="none">kind: Service</text>
      <text x="171.9527" xml:space="preserve" y="155.2324" clip-path="url(#clipPath2)" font-family="sans-serif" stroke="none">metadata:</text>
      <text x="171.9527" xml:space="preserve" y="169.2012" clip-path="url(#clipPath2)" font-family="sans-serif" stroke="none">  annotations:</text>
      <text x="171.9527" xml:space="preserve" y="183.1699" clip-path="url(#clipPath2)" font-family="sans-serif" stroke="none">    monitoring.connector.itlabs.io/enabled: "true"</text>
      <text x="171.9527" xml:space="preserve" y="197.1387" clip-path="url(#clipPath2)" font-family="sans-serif" stroke="none">    monitoring.connector.itlabs.io/metrics-path: "/metrics"</text>
      <text x="171.9527" xml:space="preserve" y="211.1074" clip-path="url(#clipPath2)" font-family="sans-serif" stroke="none">    monitoring.connector.itlabs.io/interval: "15s"</text>
      <text x="171.9527" xml:space="preserve" y="225.0762" clip-path="url(#clipPath2)" font-family="sans-serif" stroke="none">  name: application</text>
      <text x="171.9527" xml:space="preserve" y="239.0449" clip-path="url(#clipPath2)" font-family="sans-serif" stroke="none">spec:</text>
      <text x="171.9527" xml:space="preserve" y="253.0137" clip-path="url(#clipPath2)" font-family="sans-serif" stroke="none">...</text>
    </g>
    <g fill="rgb(51,102,255)" text-rendering="geometricPrecision" shape-rendering="geometricPrecision" transform="matrix(1,0,0,1,-146,-31)" stroke="rgb(51,102,255)">
      <rect x="605.72" y="212" clip-path="url(#clipPath2)" width="153" rx="4" ry="4" height="42" stroke="none"/>
    </g>
    <g text-rendering="geometricPrecision" stroke-miterlimit="1.45" shape-rendering="geometricPrecision" transform="matrix(1,0,0,1,-146,-31)" stroke-linecap="butt">
      <rect x="605.72" y="212" clip-path="url(#clipPath2)" fill="none" width="153" rx="4" ry="4" height="42"/>
      <text x="667.5627" y="230.1699" clip-path="url(#clipPath2)" fill="white" font-family="sans-serif" stroke="none" xml:space="preserve">(svc)</text>
      <text x="649.1233" y="244.1387" clip-path="url(#clipPath2)" fill="white" font-family="sans-serif" stroke="none" xml:space="preserve">application</text>
      <rect x="846.9862" y="104" clip-path="url(#clipPath2)" fill="none" width="214" rx="4" ry="4" height="177"/>
      <rect x="853.9862" y="158" clip-path="url(#clipPath2)" fill="none" width="200" rx="4" ry="4" height="113"/>
      <text x="952.079" y="218.6543" clip-path="url(#clipPath2)" fill="white" font-family="sans-serif" stroke="none" xml:space="preserve"> </text>
      <rect x="593.3531" y="88.125" clip-path="url(#clipPath2)" fill="none" width="480" rx="4" ry="4" height="201.1212" stroke="silver"/>
      <path fill="none" stroke-dasharray="6,2" d="M758.7383 139 L826.9862 139 L826.9862 221.9034 L869.4849 221.9034" clip-path="url(#clipPath2)" stroke="silver"/>
      <path fill="silver" stroke-dasharray="6,2" d="M877.4849 221.9034 L865.4849 216.9034 L868.4849 221.9034 L865.4849 226.9034 Z" clip-path="url(#clipPath2)" stroke="none"/>
      <path fill="none" stroke-dasharray="6,2" d="M526.4663 139 L597.7501 139" clip-path="url(#clipPath2)" stroke="silver"/>
      <path fill="silver" stroke-dasharray="6,2" d="M605.7501 139 L593.7501 134 L596.7501 139 L593.7501 144 Z" clip-path="url(#clipPath2)" stroke="none"/>
      <path fill="none" d="M877.5188 233 L766.747 233" clip-path="url(#clipPath2)"/>
      <path d="M758.747 233 L770.747 238 L767.747 233 L770.747 228 Z" clip-path="url(#clipPath2)" stroke="none"/>
      <path fill="none" d="M526.4595 233 L597.7468 233" clip-path="url(#clipPath2)"/>
      <path d="M605.7468 233 L593.7468 228 L596.7468 233 L593.7468 238 Z" clip-path="url(#clipPath2)" stroke="none"/>
    </g>
  </g>
</svg>
