<?xml version="1.0" encoding="UTF-8"?><svg xmlns="http://www.w3.org/2000/svg" xmlns:xlink="http://www.w3.org/1999/xlink" fill-opacity="1" color-rendering="auto" color-interpolation="auto" text-rendering="auto" stroke="black" stroke-linecap="square" width="1783" stroke-miterlimit="10" shape-rendering="auto" stroke-opacity="1" fill="black" stroke-dasharray="none" font-weight="normal" stroke-width="1" height="624" font-family="'Dialog'" font-style="normal" stroke-linejoin="miter" font-size="12px" stroke-dashoffset="0" image-rendering="auto">
  <!--Generated by ySVG 2.6-->
  <defs id="genericDefs"/>
  <g>
    <defs id="defs1">
      <linearGradient x1="1382.35" gradientUnits="userSpaceOnUse" x2="1442.35" y1="966.1315" y2="1006.1315" id="linearGradient1" spreadMethod="reflect">
        <stop stop-opacity="1" stop-color="rgb(232,238,247)" offset="0%"/>
        <stop stop-opacity="1" stop-color="rgb(183,201,227)" offset="100%"/>
      </linearGradient>
      <linearGradient x1="1382.35" gradientUnits="userSpaceOnUse" x2="1442.35" y1="917.7565" y2="957.7565" id="linearGradient2" spreadMethod="reflect">
        <stop stop-opacity="1" stop-color="rgb(232,238,247)" offset="0%"/>
        <stop stop-opacity="1" stop-color="rgb(183,201,227)" offset="100%"/>
      </linearGradient>
      <linearGradient x1="1292.35" gradientUnits="userSpaceOnUse" x2="1352.35" y1="917.7565" y2="957.7565" id="linearGradient3" spreadMethod="reflect">
        <stop stop-opacity="1" stop-color="rgb(232,238,247)" offset="0%"/>
        <stop stop-opacity="1" stop-color="rgb(183,201,227)" offset="100%"/>
      </linearGradient>
      <clipPath clipPathUnits="userSpaceOnUse" id="clipPath1">
        <path d="M0 0 L1783 0 L1783 624 L0 624 L0 0 Z"/>
      </clipPath>
      <clipPath clipPathUnits="userSpaceOnUse" id="clipPath2">
        <path d="M891 450 L2674 450 L2674 1074 L891 1074 L891 450 Z"/>
      </clipPath>
    </defs>
    <g fill="white" text-rendering="geometricPrecision" shape-rendering="geometricPrecision" transform="translate(-891,-450)" stroke="white">
      <rect x="891" width="1783" height="624" y="450" clip-path="url(#clipPath2)" stroke="none"/>
    </g>
    <g stroke-linecap="butt" transform="matrix(1,0,0,1,-891,-450)" fill="silver" text-rendering="geometricPrecision" shape-rendering="geometricPrecision" stroke="silver" stroke-miterlimit="1.45">
      <rect x="906.47" y="465.7565" clip-path="url(#clipPath2)" fill="none" width="560.56" rx="4" ry="4" height="285.75"/>
      <text x="912.47" y="494.0515" clip-path="url(#clipPath2)" fill="black" font-family="sans-serif" stroke="none" xml:space="preserve">apiVersion: apps/v1</text>
      <text x="912.47" y="508.0202" clip-path="url(#clipPath2)" fill="black" font-family="sans-serif" stroke="none" xml:space="preserve">kind: Deployment</text>
      <text x="912.47" y="521.989" clip-path="url(#clipPath2)" fill="black" font-family="sans-serif" stroke="none" xml:space="preserve">metadata:</text>
      <text x="912.47" y="535.9577" clip-path="url(#clipPath2)" fill="black" font-family="sans-serif" stroke="none" xml:space="preserve">  labels:</text>
      <text x="912.47" y="549.9265" clip-path="url(#clipPath2)" fill="black" font-family="sans-serif" stroke="none" xml:space="preserve">    app: application</text>
      <text x="912.47" y="563.8952" clip-path="url(#clipPath2)" fill="black" font-family="sans-serif" stroke="none" xml:space="preserve">spec:</text>
      <text x="912.47" y="577.864" clip-path="url(#clipPath2)" fill="black" font-family="sans-serif" stroke="none" xml:space="preserve">  selector:</text>
      <text x="912.47" y="591.8327" clip-path="url(#clipPath2)" fill="black" font-family="sans-serif" stroke="none" xml:space="preserve">    matchLabels:</text>
      <text x="912.47" y="605.8015" clip-path="url(#clipPath2)" fill="black" font-family="sans-serif" stroke="none" xml:space="preserve">      app: application</text>
      <text x="912.47" y="619.7702" clip-path="url(#clipPath2)" fill="black" font-family="sans-serif" stroke="none" xml:space="preserve">  template:</text>
      <text x="912.47" y="633.739" clip-path="url(#clipPath2)" fill="black" font-family="sans-serif" stroke="none" xml:space="preserve">    metadata:</text>
      <text x="912.47" y="647.7077" clip-path="url(#clipPath2)" fill="black" font-family="sans-serif" stroke="none" xml:space="preserve">      annotations:</text>
      <text x="912.47" y="661.6765" clip-path="url(#clipPath2)" fill="black" font-family="sans-serif" stroke="none" xml:space="preserve">        postgres.connector.itlabs.io/instance-name: "postgres"</text>
      <text x="912.47" y="675.6452" clip-path="url(#clipPath2)" fill="black" font-family="sans-serif" stroke="none" xml:space="preserve">        postgres.connector.itlabs.io/vault-path: "vault:secret/data/application/postgres-creds"</text>
      <text x="912.47" y="689.614" clip-path="url(#clipPath2)" fill="black" font-family="sans-serif" stroke="none" xml:space="preserve">        postgres.connector.itlabs.io/db-name: "application"</text>
      <text x="912.47" y="703.5827" clip-path="url(#clipPath2)" fill="black" font-family="sans-serif" stroke="none" xml:space="preserve">        postgres.connector.itlabs.io/db-username: "application"</text>
      <text x="912.47" y="717.5515" clip-path="url(#clipPath2)" fill="black" font-family="sans-serif" stroke="none" xml:space="preserve">      labels:</text>
      <text x="912.47" y="731.5202" clip-path="url(#clipPath2)" fill="black" font-family="sans-serif" stroke="none" xml:space="preserve">        app: application</text>
    </g>
    <g fill="rgb(51,102,255)" text-rendering="geometricPrecision" shape-rendering="geometricPrecision" transform="matrix(1,0,0,1,-891,-450)" stroke="rgb(51,102,255)">
      <rect x="1536.15" y="465.7565" clip-path="url(#clipPath2)" width="1122.05" rx="4" ry="4" height="42" stroke="none"/>
    </g>
    <g text-rendering="geometricPrecision" stroke-miterlimit="1.45" shape-rendering="geometricPrecision" transform="matrix(1,0,0,1,-891,-450)" stroke-linecap="butt">
      <rect x="1536.15" y="465.7565" clip-path="url(#clipPath2)" fill="none" width="1122.05" rx="4" ry="4" height="42"/>
      <text x="2062.8069" y="490.9108" clip-path="url(#clipPath2)" fill="white" font-family="sans-serif" stroke="none" xml:space="preserve">Kubernetes</text>
    </g>
    <g fill="rgb(51,102,255)" text-rendering="geometricPrecision" shape-rendering="geometricPrecision" transform="matrix(1,0,0,1,-891,-450)" stroke="rgb(51,102,255)">
      <rect x="1546.75" y="522.7565" clip-path="url(#clipPath2)" width="153" rx="4" ry="4" height="42" stroke="none"/>
    </g>
    <g text-rendering="geometricPrecision" stroke-miterlimit="1.45" shape-rendering="geometricPrecision" transform="matrix(1,0,0,1,-891,-450)" stroke-linecap="butt">
      <rect x="1546.75" y="522.7565" clip-path="url(#clipPath2)" fill="none" width="153" rx="4" ry="4" height="42"/>
      <text x="1566.3994" y="547.9108" clip-path="url(#clipPath2)" fill="white" font-family="sans-serif" stroke="none" xml:space="preserve">k8s-itlabs-operator</text>
    </g>
    <g fill="rgb(51,102,255)" text-rendering="geometricPrecision" shape-rendering="geometricPrecision" transform="matrix(1,0,0,1,-891,-450)" stroke="rgb(51,102,255)">
      <rect x="1630.75" y="733.9239" clip-path="url(#clipPath2)" width="437.6" rx="4" ry="4" height="42" stroke="none"/>
    </g>
    <g text-rendering="geometricPrecision" stroke-miterlimit="1.45" shape-rendering="geometricPrecision" transform="matrix(1,0,0,1,-891,-450)" stroke-linecap="butt">
      <rect x="1630.75" y="733.9239" clip-path="url(#clipPath2)" fill="none" width="437.6" rx="4" ry="4" height="42"/>
      <text x="1808.9797" y="752.0939" clip-path="url(#clipPath2)" fill="white" font-family="sans-serif" stroke="none" xml:space="preserve">(deployment)</text>
      <text x="1816.4534" y="766.0626" clip-path="url(#clipPath2)" fill="white" font-family="sans-serif" stroke="none" xml:space="preserve">application</text>
    </g>
    <g fill="rgb(51,102,255)" text-rendering="geometricPrecision" shape-rendering="geometricPrecision" transform="matrix(1,0,0,1,-891,-450)" stroke="rgb(51,102,255)">
      <rect x="1630.75" y="805.9239" clip-path="url(#clipPath2)" width="437.6" rx="4" ry="4" height="42" stroke="none"/>
    </g>
    <g text-rendering="geometricPrecision" stroke-miterlimit="1.45" shape-rendering="geometricPrecision" transform="matrix(1,0,0,1,-891,-450)" stroke-linecap="butt">
      <rect x="1630.75" y="805.9239" clip-path="url(#clipPath2)" fill="none" width="437.6" rx="4" ry="4" height="42"/>
      <text x="1839.2756" y="824.0939" clip-path="url(#clipPath2)" fill="white" font-family="sans-serif" stroke="none" xml:space="preserve">(rs)</text>
      <text x="1816.4534" y="838.0626" clip-path="url(#clipPath2)" fill="white" font-family="sans-serif" stroke="none" xml:space="preserve">application</text>
    </g>
    <g fill="rgb(51,102,255)" text-rendering="geometricPrecision" shape-rendering="geometricPrecision" transform="matrix(1,0,0,1,-891,-450)" stroke="rgb(51,102,255)">
      <rect x="1546.75" y="884.9239" clip-path="url(#clipPath2)" width="605.6" rx="4" ry="4" height="42" stroke="none"/>
    </g>
    <g text-rendering="geometricPrecision" stroke-miterlimit="1.45" shape-rendering="geometricPrecision" transform="matrix(1,0,0,1,-891,-450)" stroke-linecap="butt">
      <rect x="1546.75" y="884.9239" clip-path="url(#clipPath2)" fill="none" width="605.6" rx="4" ry="4" height="42"/>
      <text x="1833.5803" y="903.0939" clip-path="url(#clipPath2)" fill="white" font-family="sans-serif" stroke="none" xml:space="preserve">(pod)</text>
      <text x="1816.4534" y="917.0626" clip-path="url(#clipPath2)" fill="white" font-family="sans-serif" stroke="none" xml:space="preserve">application</text>
      <rect stroke-linecap="square" x="2182.45" y="522.7565" clip-path="url(#clipPath2)" width="464.6" rx="4" ry="4" height="42" stroke="none" stroke-miterlimit="10"/>
      <rect x="2182.45" y="522.7565" clip-path="url(#clipPath2)" fill="none" width="464.6" rx="4" ry="4" height="42"/>
      <text x="2399.1465" y="547.9108" clip-path="url(#clipPath2)" fill="white" font-family="sans-serif" stroke="none" xml:space="preserve">Vault</text>
    </g>
    <g fill="blue" text-rendering="geometricPrecision" shape-rendering="geometricPrecision" transform="matrix(1,0,0,1,-891,-450)" stroke="blue">
      <rect x="1277.43" y="845.7565" clip-path="url(#clipPath2)" width="189.6" rx="4" ry="4" height="42" stroke="none"/>
    </g>
    <g text-rendering="geometricPrecision" stroke-miterlimit="1.45" shape-rendering="geometricPrecision" transform="matrix(1,0,0,1,-891,-450)" stroke-linecap="butt">
      <rect x="1277.43" y="845.7565" clip-path="url(#clipPath2)" fill="none" width="189.6" rx="4" ry="4" height="42"/>
      <text x="1346.1792" y="870.9108" clip-path="url(#clipPath2)" fill="white" font-family="sans-serif" stroke="none" xml:space="preserve">postgres</text>
      <rect x="1546.75" y="926.9239" clip-path="url(#clipPath2)" fill="none" width="605.6" rx="4" ry="4" height="100.75" stroke="silver"/>
      <text x="1552.75" xml:space="preserve" y="946.5314" clip-path="url(#clipPath2)" font-family="sans-serif" stroke="none">env:</text>
      <text x="1552.75" xml:space="preserve" y="960.5001" clip-path="url(#clipPath2)" font-family="sans-serif" stroke="none">  POSTGRES_DB_HOST: vault:secret/data/application/postgres-creds#DATABASE_HOST</text>
      <text x="1552.75" xml:space="preserve" y="974.4689" clip-path="url(#clipPath2)" font-family="sans-serif" stroke="none">  POSTGRES_DB_PORT: vault:secret/data/application/postgres-creds#DATABASE_PORT</text>
      <text x="1552.75" xml:space="preserve" y="988.4376" clip-path="url(#clipPath2)" font-family="sans-serif" stroke="none">  POSTGRES_DB_NAME: vault:secret/data/application/postgres-creds#DATABASE_NAME</text>
      <text x="1552.75" xml:space="preserve" y="1002.4064" clip-path="url(#clipPath2)" font-family="sans-serif" stroke="none">  POSTGRES_DB_USER: vault:secret/data/application/postgres-creds#DATABASE_USER</text>
      <text x="1552.75" xml:space="preserve" y="1016.3751" clip-path="url(#clipPath2)" font-family="sans-serif" stroke="none">  POSTGRES_DB_PASSWORD: vault:secret/data/application/postgres-creds#DATABASE_PASSWORD</text>
      <rect stroke-linecap="square" x="2189.55" y="577.194" clip-path="url(#clipPath2)" width="153" rx="4" ry="4" height="42" stroke="none" stroke-miterlimit="10"/>
      <rect x="2189.55" y="577.194" clip-path="url(#clipPath2)" fill="none" width="153" rx="4" ry="4" height="42"/>
      <text x="2250.6633" y="602.3483" clip-path="url(#clipPath2)" fill="white" font-family="sans-serif" stroke="none" xml:space="preserve">vswh</text>
      <rect x="2378.55" y="687.319" clip-path="url(#clipPath2)" fill="none" width="250" rx="4" ry="4" height="100.75" stroke="silver"/>
      <text x="2384.55" xml:space="preserve" y="706.9265" clip-path="url(#clipPath2)" font-family="sans-serif" stroke="none">secret/data/application/postgres-creds</text>
      <text x="2384.55" xml:space="preserve" y="720.8952" clip-path="url(#clipPath2)" font-family="sans-serif" stroke="none">  DATABASE_HOST</text>
      <text x="2384.55" xml:space="preserve" y="734.864" clip-path="url(#clipPath2)" font-family="sans-serif" stroke="none">  DATABASE_PORT</text>
      <text x="2384.55" xml:space="preserve" y="748.8327" clip-path="url(#clipPath2)" font-family="sans-serif" stroke="none">  DATABASE_NAME</text>
      <text x="2384.55" xml:space="preserve" y="762.8015" clip-path="url(#clipPath2)" font-family="sans-serif" stroke="none">  DATABASE_USER</text>
      <text x="2384.55" xml:space="preserve" y="776.7702" clip-path="url(#clipPath2)" font-family="sans-serif" stroke="none">  DATABASE_PASSWORD</text>
      <rect stroke-linecap="square" x="2372.55" y="577.194" clip-path="url(#clipPath2)" width="263" rx="4" ry="4" height="42" stroke="none" stroke-miterlimit="10"/>
      <rect x="2372.55" y="577.194" clip-path="url(#clipPath2)" fill="none" width="263" rx="4" ry="4" height="42"/>
      <text x="2488.7424" y="602.3483" clip-path="url(#clipPath2)" fill="white" font-family="sans-serif" stroke="none" xml:space="preserve">store</text>
    </g>
    <g fill="rgb(51,102,255)" text-rendering="geometricPrecision" shape-rendering="geometricPrecision" transform="matrix(1,0,0,1,-891,-450)" stroke="rgb(51,102,255)">
      <rect x="1742.35" y="522.7565" clip-path="url(#clipPath2)" width="335" rx="4" ry="4" height="42" stroke="none"/>
    </g>
    <g text-rendering="geometricPrecision" stroke-miterlimit="1.45" shape-rendering="geometricPrecision" transform="matrix(1,0,0,1,-891,-450)" stroke-linecap="butt">
      <rect x="1742.35" y="522.7565" clip-path="url(#clipPath2)" fill="none" width="335" rx="4" ry="4" height="42"/>
      <text x="1893.7455" y="547.9108" clip-path="url(#clipPath2)" fill="white" font-family="sans-serif" stroke="none" xml:space="preserve">CRDs</text>
    </g>
    <g fill="rgb(51,102,255)" text-rendering="geometricPrecision" shape-rendering="geometricPrecision" transform="matrix(1,0,0,1,-891,-450)" stroke="rgb(51,102,255)">
      <rect x="1751.35" y="582.7565" clip-path="url(#clipPath2)" width="317" rx="4" ry="4" height="42" stroke="none"/>
    </g>
    <g text-rendering="geometricPrecision" stroke-miterlimit="1.45" shape-rendering="geometricPrecision" transform="matrix(1,0,0,1,-891,-450)" stroke-linecap="butt">
      <rect x="1751.35" y="582.7565" clip-path="url(#clipPath2)" fill="none" width="317" rx="4" ry="4" height="42"/>
      <text x="1848.3617" y="600.9265" clip-path="url(#clipPath2)" fill="white" font-family="sans-serif" stroke="none" xml:space="preserve">(PostgresConnector)</text>
      <text x="1883.7992" y="614.8952" clip-path="url(#clipPath2)" fill="white" font-family="sans-serif" stroke="none" xml:space="preserve">postgres</text>
      <rect x="1751.35" y="624.7565" clip-path="url(#clipPath2)" fill="none" width="317" rx="4" ry="4" height="42" stroke="silver"/>
      <text x="1757.35" xml:space="preserve" y="649.9108" clip-path="url(#clipPath2)" font-family="sans-serif" stroke="none">vaultpath: vault:secret/data/pg-instances/postgres</text>
      <rect x="1742.35" y="564.7565" clip-path="url(#clipPath2)" fill="none" width="335" rx="4" ry="4" height="108.0848" stroke="silver"/>
      <rect x="2378.55" y="626.319" clip-path="url(#clipPath2)" fill="none" width="250" rx="4" ry="4" height="53.875" stroke="silver"/>
      <text x="2384.55" xml:space="preserve" y="657.4108" clip-path="url(#clipPath2)" font-family="sans-serif" stroke="none">secret/data/pg-instances/postgres</text>
      <rect x="2372.55" y="619.194" clip-path="url(#clipPath2)" fill="none" width="263" rx="4" ry="4" height="177" stroke="silver"/>
      <rect x="2182.45" y="564.7565" clip-path="url(#clipPath2)" fill="none" width="464.6" rx="4" ry="4" height="243" stroke="silver"/>
    </g>
    <g fill="url(#linearGradient1)" text-rendering="geometricPrecision" shape-rendering="geometricPrecision" transform="matrix(1,0,0,1,-891,-450)" stroke="url(#linearGradient1)">
      <path d="M1382.35 974.1315 C1384.15 966.1315 1440.55 966.1315 1442.35 974.1315 L1442.35 998.1315 C1440.55 1006.1315 1384.15 1006.1315 1382.35 998.1315 Z" stroke="none" clip-path="url(#clipPath2)"/>
    </g>
    <g text-rendering="geometricPrecision" stroke-miterlimit="1.45" shape-rendering="geometricPrecision" transform="matrix(1,0,0,1,-891,-450)" stroke-linecap="butt">
      <path fill="none" d="M1382.35 974.1315 C1384.15 966.1315 1440.55 966.1315 1442.35 974.1315 L1442.35 998.1315 C1440.55 1006.1315 1384.15 1006.1315 1382.35 998.1315 Z" clip-path="url(#clipPath2)"/>
      <path fill="none" d="M1442.35 974.1315 C1440.55 982.1315 1384.15 982.1315 1382.35 974.1315" clip-path="url(#clipPath2)"/>
      <text x="1379.2533" xml:space="preserve" y="1023.2702" clip-path="url(#clipPath2)" font-family="sans-serif" stroke="none">application</text>
    </g>
    <g fill="url(#linearGradient2)" text-rendering="geometricPrecision" shape-rendering="geometricPrecision" transform="matrix(1,0,0,1,-891,-450)" stroke="url(#linearGradient2)">
      <path d="M1382.35 925.7565 C1384.15 917.7565 1440.55 917.7565 1442.35 925.7565 L1442.35 949.7565 C1440.55 957.7565 1384.15 957.7565 1382.35 949.7565 Z" stroke="none" clip-path="url(#clipPath2)"/>
    </g>
    <g text-rendering="geometricPrecision" stroke-miterlimit="1.45" shape-rendering="geometricPrecision" transform="matrix(1,0,0,1,-891,-450)" stroke-linecap="butt">
      <path fill="none" d="M1382.35 925.7565 C1384.15 917.7565 1440.55 917.7565 1442.35 925.7565 L1442.35 949.7565 C1440.55 957.7565 1384.15 957.7565 1382.35 949.7565 Z" clip-path="url(#clipPath2)"/>
      <path fill="none" d="M1442.35 925.7565 C1440.55 933.7565 1384.15 933.7565 1382.35 925.7565" clip-path="url(#clipPath2)"/>
    </g>
    <g fill="url(#linearGradient3)" text-rendering="geometricPrecision" shape-rendering="geometricPrecision" transform="matrix(1,0,0,1,-891,-450)" stroke="url(#linearGradient3)">
      <path d="M1292.35 925.7565 C1294.15 917.7565 1350.55 917.7565 1352.35 925.7565 L1352.35 949.7565 C1350.55 957.7565 1294.15 957.7565 1292.35 949.7565 Z" stroke="none" clip-path="url(#clipPath2)"/>
    </g>
    <g text-rendering="geometricPrecision" stroke-miterlimit="1.45" shape-rendering="geometricPrecision" transform="matrix(1,0,0,1,-891,-450)" stroke-linecap="butt">
      <path fill="none" d="M1292.35 925.7565 C1294.15 917.7565 1350.55 917.7565 1352.35 925.7565 L1352.35 949.7565 C1350.55 957.7565 1294.15 957.7565 1292.35 949.7565 Z" clip-path="url(#clipPath2)"/>
      <path fill="none" d="M1352.35 925.7565 C1350.55 933.7565 1294.15 933.7565 1292.35 925.7565" clip-path="url(#clipPath2)"/>
    </g>
    <g stroke-linecap="butt" transform="matrix(1,0,0,1,-891,-450)" fill="silver" text-rendering="geometricPrecision" shape-rendering="geometricPrecision" stroke="silver" stroke-miterlimit="1.45">
      <rect x="1277.43" y="887.7565" clip-path="url(#clipPath2)" fill="none" width="189.6" rx="4" ry="4" height="157"/>
      <rect x="1535.6" y="507.7565" clip-path="url(#clipPath2)" fill="none" width="1122.6" rx="4" ry="4" height="537"/>
    </g>
    <g fill="rgb(51,102,255)" text-rendering="geometricPrecision" shape-rendering="geometricPrecision" transform="matrix(1,0,0,1,-891,-450)" stroke="rgb(51,102,255)">
      <rect x="2210.95" y="884.9239" clip-path="url(#clipPath2)" width="407.6" rx="4" ry="4" height="42" stroke="none"/>
    </g>
    <g text-rendering="geometricPrecision" stroke-miterlimit="1.45" shape-rendering="geometricPrecision" transform="matrix(1,0,0,1,-891,-450)" stroke-linecap="butt">
      <rect x="2210.95" y="884.9239" clip-path="url(#clipPath2)" fill="none" width="407.6" rx="4" ry="4" height="42"/>
      <text x="2381.6387" y="903.0939" clip-path="url(#clipPath2)" fill="white" font-family="sans-serif" stroke="none" xml:space="preserve">(container)</text>
      <text x="2381.6533" y="917.0626" clip-path="url(#clipPath2)" fill="white" font-family="sans-serif" stroke="none" xml:space="preserve">application</text>
      <rect x="2210.95" y="926.9239" clip-path="url(#clipPath2)" fill="none" width="407.6" rx="4" ry="4" height="100.75" stroke="silver"/>
      <text x="2216.95" xml:space="preserve" y="946.5314" clip-path="url(#clipPath2)" font-family="sans-serif" stroke="none">env:</text>
      <text x="2216.95" xml:space="preserve" y="960.5001" clip-path="url(#clipPath2)" font-family="sans-serif" stroke="none">  POSTGRES_DB_HOST: postgres</text>
      <text x="2216.95" xml:space="preserve" y="974.4689" clip-path="url(#clipPath2)" font-family="sans-serif" stroke="none">  POSTGRES_DB_PORT: 5432</text>
      <text x="2216.95" xml:space="preserve" y="988.4376" clip-path="url(#clipPath2)" font-family="sans-serif" stroke="none">  POSTGRES_DB_NAME: application</text>
      <text x="2216.95" xml:space="preserve" y="1002.4064" clip-path="url(#clipPath2)" font-family="sans-serif" stroke="none">  POSTGRES_DB_USER: application</text>
      <text x="2216.95" xml:space="preserve" y="1016.3751" clip-path="url(#clipPath2)" font-family="sans-serif" stroke="none">  POSTGRES_DB_PASSWORD: &lt;password&gt;</text>
      <path fill="none" d="M1849.55 775.9122 L1849.55 797.9514" clip-path="url(#clipPath2)"/>
      <path d="M1849.55 805.9514 L1854.55 793.9514 L1849.55 796.9514 L1844.55 793.9514 Z" clip-path="url(#clipPath2)" stroke="none"/>
      <path fill="none" d="M1849.55 847.9469 L1849.55 876.9469" clip-path="url(#clipPath2)"/>
      <path d="M1849.55 884.9469 L1854.55 872.9469 L1849.55 875.9469 L1844.55 872.9469 Z" clip-path="url(#clipPath2)" stroke="none"/>
      <path fill="none" d="M1538.7488 548.7147 L1518.0847 548.7147 L1518.0847 960.924 L1537.141 960.924" clip-path="url(#clipPath2)"/>
      <path d="M1546.7488 548.7147 L1534.7488 543.7147 L1537.7488 548.7147 L1534.7488 553.7147 Z" clip-path="url(#clipPath2)" stroke="none"/>
      <path d="M1545.141 960.924 L1533.141 955.924 L1536.141 960.924 L1533.141 965.924 Z" clip-path="url(#clipPath2)" stroke="none"/>
      <rect x="1504.6355" y="745.8349" clip-path="url(#clipPath2)" fill="white" width="26.8984" height="17.9688" stroke="none"/>
      <text x="1506.6355" xml:space="preserve" y="758.9736" clip-path="url(#clipPath2)" font-family="sans-serif" stroke="none">2, 7</text>
      <path fill="none" d="M1699.7632 548.2256 L1707.1721 548.2256 L1707.1721 704.9986 L2302.3518 704.9986 L2302.3518 737.694 L2370.5237 737.694" clip-path="url(#clipPath2)"/>
      <path d="M2378.5237 737.694 L2366.5237 732.694 L2369.5237 737.694 L2366.5237 742.694 Z" clip-path="url(#clipPath2)" stroke="none"/>
      <rect x="2123.997" y="696.0142" clip-path="url(#clipPath2)" fill="white" width="11.6348" height="17.9688" stroke="none"/>
      <text x="2125.9971" xml:space="preserve" y="709.1529" clip-path="url(#clipPath2)" font-family="sans-serif" stroke="none">5</text>
      <path fill="none" d="M2266.05 619.1758 L2266.05 758.8319 L2370.5525 758.8319" clip-path="url(#clipPath2)"/>
      <path d="M2378.5525 758.8319 L2366.5525 753.8319 L2369.5525 758.8319 L2366.5525 763.8319 Z" clip-path="url(#clipPath2)" stroke="none"/>
      <rect x="2260.2326" y="722.2208" clip-path="url(#clipPath2)" fill="white" width="11.6348" height="17.9688" stroke="none"/>
      <text x="2262.2327" xml:space="preserve" y="735.3594" clip-path="url(#clipPath2)" font-family="sans-serif" stroke="none">9</text>
      <path fill="none" d="M1699.774 532.921 L1723.8519 532.921 L1723.8519 645.7565 L1743.3188 645.7565" clip-path="url(#clipPath2)"/>
      <path d="M1751.3188 645.7565 L1739.3188 640.7565 L1742.3188 645.7565 L1739.3188 650.7565 Z" clip-path="url(#clipPath2)" stroke="none"/>
      <rect x="1718.0345" y="580.3544" clip-path="url(#clipPath2)" fill="white" width="11.6348" height="17.9688" stroke="none"/>
      <text x="1720.0345" xml:space="preserve" y="593.493" clip-path="url(#clipPath2)" font-family="sans-serif" stroke="none">3</text>
      <path fill="none" d="M1699.7587 539.3285 L1713.8519 539.3285 L1713.8519 687.2513 L2302.3518 687.2513 L2302.3518 653.2565 L2370.5237 653.2565" clip-path="url(#clipPath2)"/>
      <path d="M2378.5237 653.2565 L2366.5237 648.2565 L2369.5237 653.2565 L2366.5237 658.2565 Z" clip-path="url(#clipPath2)" stroke="none"/>
      <rect x="2061.2782" y="678.2669" clip-path="url(#clipPath2)" fill="white" width="11.6348" height="17.9688" stroke="none"/>
      <text x="2063.2783" xml:space="preserve" y="691.4056" clip-path="url(#clipPath2)" font-family="sans-serif" stroke="none">4</text>
      <path fill="none" d="M1546.7439 539.2939 L1496.0135 539.2939 L1496.0135 986.1315 L1450.3757 986.1315" clip-path="url(#clipPath2)"/>
      <path d="M1442.3757 986.1315 L1454.3757 991.1315 L1451.3757 986.1315 L1454.3757 981.1315 Z" clip-path="url(#clipPath2)" stroke="none"/>
      <rect x="1490.1962" y="798.2791" clip-path="url(#clipPath2)" fill="white" width="11.6348" height="17.9688" stroke="none"/>
      <text x="1492.1962" xml:space="preserve" y="811.4178" clip-path="url(#clipPath2)" font-family="sans-serif" stroke="none">6</text>
      <path fill="none" d="M1467.0398 527.9539 L1527.5767 525.8188" clip-path="url(#clipPath2)"/>
      <path d="M1535.5717 525.5369 L1523.4028 520.963 L1526.5773 525.8541 L1523.7554 530.9567 Z" clip-path="url(#clipPath2)" stroke="none"/>
      <rect x="1495.4976" y="517.7607" clip-path="url(#clipPath2)" fill="white" width="11.6348" height="17.9688" stroke="none"/>
      <text x="1497.4976" xml:space="preserve" y="530.8994" clip-path="url(#clipPath2)" font-family="sans-serif" stroke="none">1</text>
      <path fill="none" d="M2152.3308 905.924 L2202.9202 905.924" clip-path="url(#clipPath2)"/>
      <path d="M2210.9202 905.924 L2198.9202 900.924 L2201.9202 905.924 L2198.9202 910.924 Z" clip-path="url(#clipPath2)" stroke="none"/>
      <path fill="none" d="M2181.5173 598.194 L2167.76 598.194 L2167.76 961.4482 L2202.9497 961.4482" clip-path="url(#clipPath2)"/>
      <path d="M2189.5173 598.194 L2177.5173 593.194 L2180.5173 598.194 L2177.5173 603.194 Z" clip-path="url(#clipPath2)" stroke="none"/>
      <path d="M2210.9497 961.4482 L2198.9497 956.4482 L2201.9497 961.4482 L2198.9497 966.4482 Z" clip-path="url(#clipPath2)" stroke="none"/>
      <rect x="2150.4935" y="770.8368" clip-path="url(#clipPath2)" fill="white" width="34.5332" height="17.9688" stroke="none"/>
      <text x="2152.4934" xml:space="preserve" y="783.9754" clip-path="url(#clipPath2)" font-family="sans-serif" stroke="none">8, 10</text>
      <path fill="none" stroke-dasharray="6,2" d="M2210.9199 984.7891 L2167.9902 984.7891 L2167.9902 1058.9337 L1496.0135 1058.9337 L1496.0135 993.6217 L1450.3737 993.6217" clip-path="url(#clipPath2)" stroke="silver"/>
      <path fill="silver" stroke-dasharray="6,2" d="M1442.3737 993.6217 L1454.3737 998.6217 L1451.3737 993.6217 L1454.3737 988.6217 Z" clip-path="url(#clipPath2)" stroke="none"/>
    </g>
  </g>
</svg>
